<svg id="visual" viewBox="0 0 1080 400" width="1080" height="800" xmlns="http://www.w3.org/2000/svg" xmlns:xlink="http://www.w3.org/1999/xlink" version="1.1"><rect x="0" y="0" width="1080" height="400" fill="#ffffff"></rect><path d="M0 269L13.8 263.2C27.7 257.3 55.3 245.7 83 241C110.7 236.3 138.3 238.7 166 237.3C193.7 236 221.3 231 249 227.2C276.7 223.3 304.3 220.7 332 221.7C359.7 222.7 387.3 227.3 415 233.5C442.7 239.7 470.3 247.3 498.2 253.3C526 259.3 554 263.7 581.8 261C609.7 258.3 637.3 248.7 665 246.8C692.7 245 720.3 251 748 252.2C775.7 253.3 803.3 249.7 831 251.3C858.7 253 886.3 260 914 260.8C941.7 261.7 969.3 256.3 997 255C1024.7 253.7 1052.3 256.3 1066.2 257.7L1080 259L1080 401L1066.2 401C1052.3 401 1024.7 401 997 401C969.3 401 941.7 401 914 401C886.3 401 858.7 401 831 401C803.3 401 775.7 401 748 401C720.3 401 692.7 401 665 401C637.3 401 609.7 401 581.8 401C554 401 526 401 498.2 401C470.3 401 442.7 401 415 401C387.3 401 359.7 401 332 401C304.3 401 276.7 401 249 401C221.3 401 193.7 401 166 401C138.3 401 110.7 401 83 401C55.3 401 27.7 401 13.8 401L0 401Z" fill="#a8b8f1"></path><path d="M0 236L13.8 243.7C27.7 251.3 55.3 266.7 83 270.8C110.7 275 138.3 268 166 267.7C193.7 267.3 221.3 273.7 249 272.3C276.7 271 304.3 262 332 261.8C359.7 261.7 387.3 270.3 415 271C442.7 271.7 470.3 264.3 498.2 261.8C526 259.3 554 261.7 581.8 264.3C609.7 267 637.3 270 665 267.8C692.7 265.7 720.3 258.3 748 259.8C775.7 261.3 803.3 271.7 831 268.3C858.7 265 886.3 248 914 241.7C941.7 235.3 969.3 239.7 997 243.5C1024.7 247.3 1052.3 250.7 1066.2 252.3L1080 254L1080 401L1066.2 401C1052.3 401 1024.7 401 997 401C969.3 401 941.7 401 914 401C886.3 401 858.7 401 831 401C803.3 401 775.7 401 748 401C720.3 401 692.7 401 665 401C637.3 401 609.7 401 581.8 401C554 401 526 401 498.2 401C470.3 401 442.7 401 415 401C387.3 401 359.7 401 332 401C304.3 401 276.7 401 249 401C221.3 401 193.7 401 166 401C138.3 401 110.7 401 83 401C55.3 401 27.7 401 13.8 401L0 401Z" fill="#9baef4"></path><path d="M0 259L13.8 260.3C27.7 261.7 55.3 264.3 83 264C110.7 263.7 138.3 260.3 166 259.3C193.7 258.3 221.3 259.7 249 262.7C276.7 265.7 304.3 270.3 332 274.8C359.7 279.3 387.3 283.7 415 282.7C442.7 281.7 470.3 275.3 498.2 273C526 270.7 554 272.3 581.8 269.3C609.7 266.3 637.3 258.7 665 257.7C692.7 256.7 720.3 262.3 748 268.3C775.7 274.3 803.3 280.7 831 280.7C858.7 280.7 886.3 274.3 914 273.8C941.7 273.3 969.3 278.7 997 280.5C1024.7 282.3 1052.3 280.7 1066.2 279.8L1080 279L1080 401L1066.2 401C1052.3 401 1024.7 401 997 401C969.3 401 941.7 401 914 401C886.3 401 858.7 401 831 401C803.3 401 775.7 401 748 401C720.3 401 692.7 401 665 401C637.3 401 609.7 401 581.8 401C554 401 526 401 498.2 401C470.3 401 442.7 401 415 401C387.3 401 359.7 401 332 401C304.3 401 276.7 401 249 401C221.3 401 193.7 401 166 401C138.3 401 110.7 401 83 401C55.3 401 27.7 401 13.8 401L0 401Z" fill="#8ea3f7"></path><path d="M0 292L13.8 291.3C27.7 290.7 55.3 289.3 83 289.8C110.7 290.3 138.3 292.7 166 294.7C193.7 296.7 221.3 298.3 249 297.5C276.7 296.7 304.3 293.3 332 291.2C359.7 289 387.3 288 415 283.8C442.7 279.7 470.3 272.3 498.2 276.3C526 280.3 554 295.7 581.8 300.3C609.7 305 637.3 299 665 298.3C692.7 297.7 720.3 302.3 748 299.3C775.7 296.3 803.3 285.7 831 280.7C858.7 275.7 886.3 276.3 914 279.5C941.7 282.7 969.3 288.3 997 293.3C1024.7 298.3 1052.3 302.7 1066.2 304.8L1080 307L1080 401L1066.2 401C1052.3 401 1024.7 401 997 401C969.3 401 941.7 401 914 401C886.3 401 858.7 401 831 401C803.3 401 775.7 401 748 401C720.3 401 692.7 401 665 401C637.3 401 609.7 401 581.8 401C554 401 526 401 498.2 401C470.3 401 442.7 401 415 401C387.3 401 359.7 401 332 401C304.3 401 276.7 401 249 401C221.3 401 193.7 401 166 401C138.3 401 110.7 401 83 401C55.3 401 27.7 401 13.8 401L0 401Z" fill="#8199f9"></path><path d="M0 317L13.8 312.3C27.7 307.7 55.3 298.3 83 295.8C110.7 293.3 138.3 297.7 166 303.5C193.7 309.3 221.3 316.7 249 317.5C276.7 318.3 304.3 312.7 332 308.3C359.7 304 387.3 301 415 304C442.7 307 470.3 316 498.2 320.5C526 325 554 325 581.8 321C609.7 317 637.3 309 665 307.2C692.7 305.3 720.3 309.7 748 306.7C775.7 303.7 803.3 293.3 831 289C858.7 284.7 886.3 286.3 914 292.3C941.7 298.3 969.3 308.7 997 309.8C1024.7 311 1052.3 303 1066.2 299L1080 295L1080 401L1066.2 401C1052.3 401 1024.7 401 997 401C969.3 401 941.7 401 914 401C886.3 401 858.7 401 831 401C803.3 401 775.7 401 748 401C720.3 401 692.7 401 665 401C637.3 401 609.7 401 581.8 401C554 401 526 401 498.2 401C470.3 401 442.7 401 415 401C387.3 401 359.7 401 332 401C304.3 401 276.7 401 249 401C221.3 401 193.7 401 166 401C138.3 401 110.7 401 83 401C55.3 401 27.7 401 13.8 401L0 401Z" fill="#748efb"></path><path d="M0 327L13.8 328.7C27.7 330.3 55.3 333.7 83 329C110.7 324.3 138.3 311.7 166 311.2C193.7 310.7 221.3 322.3 249 323.3C276.7 324.3 304.3 314.7 332 309.7C359.7 304.7 387.3 304.3 415 305C442.7 305.7 470.3 307.3 498.2 310.2C526 313 554 317 581.8 320.8C609.7 324.7 637.3 328.3 665 328C692.7 327.7 720.3 323.3 748 323.2C775.7 323 803.3 327 831 327C858.7 327 886.3 323 914 320.8C941.7 318.7 969.3 318.3 997 316.7C1024.7 315 1052.3 312 1066.2 310.5L1080 309L1080 401L1066.2 401C1052.3 401 1024.7 401 997 401C969.3 401 941.7 401 914 401C886.3 401 858.7 401 831 401C803.3 401 775.7 401 748 401C720.3 401 692.7 401 665 401C637.3 401 609.7 401 581.8 401C554 401 526 401 498.2 401C470.3 401 442.7 401 415 401C387.3 401 359.7 401 332 401C304.3 401 276.7 401 249 401C221.3 401 193.7 401 166 401C138.3 401 110.7 401 83 401C55.3 401 27.7 401 13.8 401L0 401Z" fill="#6684fd"></path><path d="M0 343L13.8 340.2C27.7 337.3 55.3 331.7 83 331.7C110.7 331.7 138.3 337.3 166 337.8C193.7 338.3 221.3 333.7 249 330.3C276.7 327 304.3 325 332 326.2C359.7 327.3 387.3 331.7 415 332C442.7 332.3 470.3 328.7 498.2 328.7C526 328.7 554 332.3 581.8 332.5C609.7 332.7 637.3 329.3 665 327C692.7 324.7 720.3 323.3 748 323.8C775.7 324.3 803.3 326.7 831 328.2C858.7 329.7 886.3 330.3 914 334.2C941.7 338 969.3 345 997 343.8C1024.7 342.7 1052.3 333.3 1066.2 328.7L1080 324L1080 401L1066.2 401C1052.3 401 1024.7 401 997 401C969.3 401 941.7 401 914 401C886.3 401 858.7 401 831 401C803.3 401 775.7 401 748 401C720.3 401 692.7 401 665 401C637.3 401 609.7 401 581.8 401C554 401 526 401 498.2 401C470.3 401 442.7 401 415 401C387.3 401 359.7 401 332 401C304.3 401 276.7 401 249 401C221.3 401 193.7 401 166 401C138.3 401 110.7 401 83 401C55.3 401 27.7 401 13.8 401L0 401Z" fill="#5979fe"></path><path d="M0 354L13.8 350.7C27.7 347.3 55.3 340.7 83 341.8C110.7 343 138.3 352 166 353.2C193.7 354.3 221.3 347.7 249 347.8C276.7 348 304.3 355 332 358.5C359.7 362 387.3 362 415 362C442.7 362 470.3 362 498.2 357.3C526 352.7 554 343.3 581.8 344C609.7 344.7 637.3 355.3 665 358.3C692.7 361.3 720.3 356.7 748 352.2C775.7 347.7 803.3 343.3 831 345C858.7 346.7 886.3 354.3 914 354.8C941.7 355.3 969.3 348.7 997 346C1024.7 343.3 1052.3 344.7 1066.2 345.3L1080 346L1080 401L1066.2 401C1052.3 401 1024.7 401 997 401C969.3 401 941.7 401 914 401C886.3 401 858.7 401 831 401C803.3 401 775.7 401 748 401C720.3 401 692.7 401 665 401C637.3 401 609.7 401 581.8 401C554 401 526 401 498.2 401C470.3 401 442.7 401 415 401C387.3 401 359.7 401 332 401C304.3 401 276.7 401 249 401C221.3 401 193.7 401 166 401C138.3 401 110.7 401 83 401C55.3 401 27.7 401 13.8 401L0 401Z" fill="#4a6eff"></path><path d="M0 380L13.8 375.8C27.7 371.7 55.3 363.3 83 360.3C110.7 357.3 138.3 359.7 166 359.2C193.7 358.7 221.3 355.3 249 356C276.7 356.7 304.3 361.3 332 361.7C359.7 362 387.3 358 415 356.8C442.7 355.7 470.3 357.3 498.2 357C526 356.7 554 354.3 581.8 357C609.7 359.7 637.3 367.3 665 371.7C692.7 376 720.3 377 748 373.5C775.7 370 803.3 362 831 360.2C858.7 358.3 886.3 362.7 914 363.2C941.7 363.7 969.3 360.3 997 358.8C1024.7 357.3 1052.3 357.7 1066.2 357.8L1080 358L1080 401L1066.2 401C1052.3 401 1024.7 401 997 401C969.3 401 941.7 401 914 401C886.3 401 858.7 401 831 401C803.3 401 775.7 401 748 401C720.3 401 692.7 401 665 401C637.3 401 609.7 401 581.8 401C554 401 526 401 498.2 401C470.3 401 442.7 401 415 401C387.3 401 359.7 401 332 401C304.3 401 276.7 401 249 401C221.3 401 193.7 401 166 401C138.3 401 110.7 401 83 401C55.3 401 27.7 401 13.8 401L0 401Z" fill="#3a63ff"></path><path d="M0 393L13.8 392.5C27.7 392 55.3 391 83 389C110.7 387 138.3 384 166 384.3C193.7 384.7 221.3 388.3 249 390.3C276.7 392.3 304.3 392.7 332 391.7C359.7 390.7 387.3 388.3 415 386.8C442.7 385.3 470.3 384.7 498.2 383C526 381.3 554 378.7 581.8 378C609.7 377.3 637.3 378.7 665 379.5C692.7 380.3 720.3 380.7 748 379.8C775.7 379 803.3 377 831 377.2C858.7 377.3 886.3 379.7 914 381.5C941.7 383.3 969.3 384.7 997 383.2C1024.7 381.7 1052.3 377.3 1066.2 375.2L1080 373L1080 401L1066.2 401C1052.3 401 1024.7 401 997 401C969.3 401 941.7 401 914 401C886.3 401 858.7 401 831 401C803.3 401 775.7 401 748 401C720.3 401 692.7 401 665 401C637.3 401 609.7 401 581.8 401C554 401 526 401 498.2 401C470.3 401 442.7 401 415 401C387.3 401 359.7 401 332 401C304.3 401 276.7 401 249 401C221.3 401 193.7 401 166 401C138.3 401 110.7 401 83 401C55.3 401 27.7 401 13.8 401L0 401Z" fill="#2757ff"></path></svg>