<svg id="visual" viewBox="0 0 900 600" width="600" height="400" xmlns="http://www.w3.org/2000/svg" xmlns:xlink="http://www.w3.org/1999/xlink" version="1.1"><rect x="0" y="0" width="900" height="600" fill="#f6f6f6"></rect><path d="M0 288L16.7 290.7C33.3 293.3 66.7 298.7 100 290.7C133.3 282.7 166.7 261.3 200 270.5C233.3 279.7 266.7 319.3 300 338.3C333.3 357.3 366.7 355.7 400 340.3C433.3 325 466.7 296 500 289.5C533.3 283 566.7 299 600 313.8C633.3 328.7 666.7 342.3 700 342.5C733.3 342.7 766.7 329.3 800 321.3C833.3 313.3 866.7 310.7 883.3 309.3L900 308L900 0L883.3 0C866.7 0 833.3 0 800 0C766.7 0 733.3 0 700 0C666.7 0 633.3 0 600 0C566.7 0 533.3 0 500 0C466.7 0 433.3 0 400 0C366.7 0 333.3 0 300 0C266.7 0 233.3 0 200 0C166.7 0 133.3 0 100 0C66.7 0 33.3 0 16.7 0L0 0Z" fill="#0066FF" stroke-linecap="round" stroke-linejoin="miter"></path></svg>